PathFileType	4	(X/Y/Z)	TVC_58_Cal_02_0_static_RCNL2025.trc
DataRate	CameraRate	NumFrames	NumMarkers	Units	OrigDataRate	OrigDataStartFrame	OrigNumFrames
100	100	10	27	mm	100	90	102
Frame#	Time	R_Shoulder			L_Shoulder			C7			J_Notch			R_Elbow			L_Elbow			R_Wrist			L_Wrist			R_Asis			L_Asis			R_Psis			L_Psis			Sacral			Thoracic			Sternum			R_Thigh_Lateral			R_Knee_Lateral			R_Shank_Lateral			R_Ankle_Lateral			R_Heel			R_Toe			L_Thigh_Lateral			L_Knee_Lateral			L_Shank_Lateral			L_Ankle_Lateral			L_Heel			L_Toe		
		X1	Y1	Z1	X2	Y2	Z2	X3	Y3	Z3	X4	Y4	Z4	X5	Y5	Z5	X6	Y6	Z6	X7	Y7	Z7	X8	Y8	Z8	X9	Y9	Z9	X10	Y10	Z10	X11	Y11	Z11	X12	Y12	Z12	X13	Y13	Z13	X14	Y14	Z14	X15	Y15	Z15	X16	Y16	Z16	X17	Y17	Z17	X18	Y18	Z18	X19	Y19	Z19	X20	Y20	Z20	X21	Y21	Z21	X22	Y22	Z22	X23	Y23	Z23	X24	Y24	Z24	X25	Y25	Z25	X26	Y26	Z26	X27	Y27	Z27
90	0.89000000	-284.476105	1354.434692	-24.719894	-274.153076	1361.178223	-379.880768	-341.821991	1425.319336	-210.826828	-191.996353	1332.005371	-200.869614	-301.124969	1044.232422	59.249542	-324.398346	1051.384766	-452.472656	-215.972534	806.356262	92.344299	-265.569321	811.685120	-504.752686	-179.386169	908.896423	-58.380226	-163.979630	908.092712	-363.726044	-393.504730	964.382263	-147.994583	-395.504150	956.876709	-259.675934	-394.504440	960.629486	-203.835258	-376.847992	1118.318481	-207.411758	-84.380569	1084.272461	-209.059830	-225.009018	704.356384	34.152977	-234.843109	469.735840	-47.444698	-276.506104	271.982391	-1.303426	-308.331848	70.313057	-97.630348	-356.134155	61.383537	-155.997940	-178.959305	46.439098	-117.850945	-264.554779	676.313599	-444.624847	-233.679199	469.579498	-343.363129	-274.444794	287.273499	-403.248291	-322.560272	65.347389	-315.078979	-363.019348	57.886017	-261.608704	-184.089783	44.609615	-303.746124
91	0.90000000	-284.319916	1354.418213	-24.737059	-274.133759	1361.155396	-379.919220	-341.719940	1425.298828	-210.884430	-192.043991	1332.004395	-200.808243	-300.936768	1044.246094	59.167397	-324.411438	1051.368774	-452.469849	-215.776726	806.420013	92.235756	-265.594696	811.640778	-504.684143	-179.375793	908.975159	-58.362228	-163.980713	908.077942	-363.734680	-393.528168	964.147705	-148.085724	-395.510376	956.788269	-259.652985	-394.519272	960.467987	-203.869354	-376.842010	1118.333862	-207.408295	-84.318848	1084.227051	-209.090057	-224.867966	704.377380	34.075527	-234.770309	469.744415	-47.440720	-276.543884	272.032196	-1.316879	-308.342773	70.421379	-97.650772	-356.135712	61.387363	-155.998932	-178.854233	46.458118	-117.833344	-264.561432	676.311035	-444.625336	-233.680069	469.629883	-343.414703	-274.461975	287.215851	-403.242828	-322.557037	65.338257	-315.121338	-363.019043	57.904270	-261.608459	-184.154984	44.563393	-303.744843
92	0.91000000	-284.281830	1354.529541	-24.776968	-274.151062	1361.175903	-379.900757	-341.681519	1425.263672	-210.924744	-191.997437	1332.001709	-200.909897	-300.969818	1044.356689	59.520248	-324.414551	1051.368652	-452.470978	-215.539375	806.446289	92.240658	-265.554733	811.565369	-504.603043	-179.037842	909.014526	-58.297058	-163.978592	908.080994	-363.712158	-393.394379	964.320129	-147.937744	-395.518555	956.873779	-259.644165	-394.456467	960.596954	-203.790955	-376.843842	1118.335205	-207.410675	-84.306244	1084.224609	-209.096634	-224.801132	704.373535	34.109917	-234.708786	469.761688	-47.419258	-276.473755	271.991730	-1.350142	-308.373444	70.349976	-97.599350	-356.106415	61.327354	-156.029327	-178.931534	46.499580	-117.859222	-264.550842	676.331360	-444.644836	-233.668488	469.662201	-343.404541	-274.494019	287.208435	-403.183289	-322.594299	65.317734	-315.083130	-363.023193	57.908882	-261.607269	-184.195404	44.568226	-303.762024
93	0.92000000	-284.111847	1354.508667	-24.846601	-274.179413	1361.169556	-379.951538	-341.693848	1425.356079	-210.915619	-191.973648	1331.893311	-200.883392	-300.798828	1044.364014	59.299198	-324.387695	1051.355835	-452.420837	-215.337196	806.452454	92.096169	-265.438278	811.496033	-504.476517	-178.657196	909.059509	-58.169525	-164.001862	908.088318	-363.728973	-393.378571	964.390381	-147.939896	-395.538361	956.799500	-259.628021	-394.458466	960.594940	-203.783958	-376.915985	1118.343994	-207.374466	-84.309631	1084.329834	-209.163376	-224.803970	704.375183	34.119564	-234.663574	469.737762	-47.420403	-276.443207	271.917847	-1.247147	-308.347443	70.345955	-97.610565	-356.091675	61.340889	-156.035721	-178.801025	46.448532	-117.891754	-264.540771	676.322449	-444.642059	-233.658295	469.658875	-343.382019	-274.471130	287.178619	-403.146271	-322.624817	65.358482	-315.055817	-363.035583	57.915756	-261.589447	-184.142853	44.606895	-303.796234
94	0.93000000	-284.058533	1354.565674	-24.799982	-274.231995	1361.156128	-379.981628	-341.708862	1425.279175	-210.896683	-191.964172	1332.022217	-200.947876	-300.647797	1044.311279	59.170605	-324.353973	1051.248291	-452.563110	-215.168732	806.422668	91.976997	-265.495018	811.481628	-504.426773	-177.825287	909.208374	-57.723701	-164.070816	908.093506	-363.754211	-393.466766	964.349182	-147.890305	-395.468262	956.793335	-259.576874	-394.467514	960.571259	-203.733589	-376.882477	1118.334106	-207.328903	-84.135193	1084.361084	-209.225708	-224.800323	704.348755	34.118805	-234.604340	469.699585	-47.484257	-276.382996	271.898865	-1.313066	-308.369659	70.364120	-97.579018	-356.127472	61.380917	-156.001587	-178.879593	46.518696	-117.967407	-264.568146	676.284912	-444.685638	-233.655746	469.703156	-343.364929	-274.475708	287.187134	-403.166992	-322.602814	65.318062	-315.048676	-363.027679	57.879089	-261.604736	-184.184418	44.582573	-303.793457
95	0.94000000	-284.071869	1354.650391	-24.798048	-274.207397	1361.140625	-380.009705	-341.617401	1425.243286	-210.956635	-191.890503	1332.051270	-201.046951	-300.638519	1044.438965	59.517937	-324.333344	1051.212646	-452.582764	-215.001862	806.429749	91.852047	-265.334633	811.427246	-504.256668	-177.577499	909.183838	-57.793552	-164.057343	908.103699	-363.779388	-393.478302	964.347473	-147.884109	-395.521576	956.805725	-259.630524	-394.499939	960.576599	-203.757317	-376.876404	1118.328003	-207.259064	-84.191658	1084.351196	-209.256180	-224.752365	704.336304	34.136272	-234.575714	469.669342	-47.493412	-276.410004	271.954865	-1.339583	-308.323120	70.412804	-97.635811	-356.139709	61.389542	-155.996323	-178.911606	46.504456	-117.965225	-264.520264	676.249329	-444.707611	-233.688095	469.689453	-343.338501	-274.488953	287.166595	-403.176849	-322.616364	65.294907	-315.027252	-363.021698	57.856621	-261.608795	-184.196777	44.590115	-303.759277
96	0.95000000	-283.930878	1354.661987	-24.761368	-274.239746	1361.114624	-380.066925	-341.599976	1425.275269	-210.978653	-191.868469	1332.063110	-201.040955	-300.580475	1044.381958	59.272640	-324.323120	1051.154541	-452.541992	-214.744194	806.572021	91.633842	-265.266609	811.363312	-504.142517	-177.955811	909.117004	-57.863579	-164.055878	908.104492	-363.795532	-393.495850	964.341003	-147.859741	-395.504669	956.726196	-259.664337	-394.500259	960.533600	-203.762039	-377.172791	1118.486328	-206.952606	-84.061340	1084.331421	-209.280991	-224.646408	704.304016	34.126019	-234.594513	469.688446	-47.468941	-276.362366	271.805359	-1.310513	-308.349457	70.333122	-97.619011	-356.141754	61.333145	-155.994934	-178.911514	46.500988	-117.962440	-264.464813	676.245422	-444.692719	-233.674088	469.683258	-343.365295	-274.551239	287.192108	-403.130676	-322.658112	65.298668	-315.113373	-363.032684	57.863029	-261.590698	-184.221069	44.587002	-303.735718
97	0.96000000	-283.845245	1354.728149	-24.817457	-274.296906	1361.102051	-380.085968	-341.603821	1425.255859	-210.980515	-191.861084	1331.956543	-201.027161	-300.339630	1044.378906	59.172970	-324.288696	1051.115479	-452.468994	-214.576019	806.532501	91.549053	-265.221367	811.333496	-504.046387	-177.953720	909.135803	-57.751534	-164.066269	908.066650	-363.760010	-393.467010	964.383240	-147.902664	-395.513947	956.836304	-259.654785	-394.490479	960.609772	-203.778725	-376.931366	1118.320312	-207.271835	-84.016861	1084.354004	-209.291138	-224.690384	704.311401	34.079311	-234.507248	469.671417	-47.438942	-276.347198	271.799255	-1.358936	-308.378296	70.303062	-97.597382	-356.131805	61.369087	-156.018723	-178.909348	46.501110	-117.962837	-264.495667	676.243469	-444.681854	-233.758881	469.595642	-343.459564	-274.497375	287.153778	-403.176086	-322.640594	65.293343	-315.028381	-363.112122	57.868969	-261.555237	-184.259766	44.571938	-303.798218
98	0.97000000	-283.761444	1354.737549	-24.873722	-274.300201	1361.104492	-380.084015	-341.607483	1425.246826	-210.977081	-191.865799	1332.072510	-201.058838	-299.992859	1044.386475	59.289932	-324.361847	1051.095459	-452.419556	-214.408905	806.604248	91.520908	-265.187241	811.265533	-503.989029	-177.781403	909.216919	-57.633774	-164.060303	908.153076	-363.815735	-393.462189	964.384705	-147.908203	-395.558746	956.869690	-259.611145	-394.510468	960.627197	-203.759674	-376.895020	1118.363892	-207.438171	-84.021996	1084.353271	-209.288834	-224.677811	704.313721	34.053516	-234.448181	469.731323	-47.462524	-276.276093	271.849152	-1.388893	-308.361328	70.267464	-97.637756	-356.136169	61.383991	-156.020905	-178.919678	46.515965	-117.959480	-264.432068	676.281616	-444.624573	-233.709106	469.556305	-343.443756	-274.496857	287.165619	-403.166382	-322.657654	65.290520	-315.137177	-363.132172	57.862484	-261.548615	-184.258102	44.587685	-303.787018
99	0.98000000	-283.631348	1354.774780	-24.906733	-274.314087	1361.115234	-380.146027	-341.601624	1425.278809	-211.065170	-191.635925	1332.181641	-201.158066	-300.068268	1044.411255	59.153160	-324.312744	1051.045532	-452.344940	-214.316277	806.616333	91.395958	-265.179321	811.240875	-503.866302	-178.081650	909.106323	-57.969505	-164.045898	908.153870	-363.762695	-393.492706	964.429260	-147.878494	-395.631073	956.899780	-259.575989	-394.561890	960.664520	-203.727242	-376.906464	1118.330933	-207.298157	-84.030952	1084.365234	-209.294113	-224.583542	704.309631	34.082794	-234.446472	469.737885	-47.457066	-276.295319	271.927338	-1.434702	-308.339142	70.281494	-97.640350	-356.121826	61.346077	-156.046188	-178.921555	46.517223	-117.958649	-264.431976	676.284668	-444.623718	-233.684647	469.615662	-343.437836	-274.458160	287.167847	-403.131836	-322.679962	65.332283	-315.089203	-363.108185	57.847477	-261.532715	-184.327728	44.546093	-303.774170
